# File created by Blade
# Date/Time:  Thu Sep 25 17:33:50 2014
# Frame Rate: 120.000 fps
#------------------------------------------------------
:FULLY-SPECIFIED
:DEGREES
2601
root 0.069928 32.777864 -2.074024 14.599571 1.010241 -1.232177
Spine -8.092012 6.239091 -5.215500
Head -13.241967 -23.291503 15.600953
LeftShoulder -4.783362 24.677226 14.023893
LeftArm 42.954263 39.104387 -53.190534
LeftForeArm 32.990769 -0.000000 104.595149
LeftHand -27.379803 -0.000000 22.219498
LeftHandThumb1 -26.253704 0.000000 33.147579
RightShoulder -14.248019 20.336023 -29.511400
RightArm 23.702474 -21.663783 89.950026
RightForeArm -6.876250 0.000000 133.888804
RightHand -3.133384 -0.000000 -20.912062
RightHandThumb1 -24.326973 -0.000000 -32.862282
LeftUpLeg -13.464117 8.766478 -1.883721
LeftLeg 0.182366 -0.000000 -0.000000
LeftFoot -12.816439 17.906910 -17.309458
LeftToeBase 5.730269 -0.000000 -0.000000
RightUpLeg -16.063426 -4.181137 -1.653261
RightLeg 8.257117 -0.000000 -0.000000
RightFoot -9.373245 -3.943116 -5.581319
RightToeBase -0.896702 -0.000000 0.000000
2602
root 0.063958 32.777042 -2.068562 14.566417 1.126950 -1.233491
Spine -8.124578 6.238453 -5.175890
Head -13.090236 -23.181541 15.522827
LeftShoulder -4.780302 24.640395 14.000095
LeftArm 43.193657 39.162540 -53.047541
LeftForeArm 33.041422 -0.000000 104.604079
LeftHand -27.419559 -0.000000 22.268266
LeftHandThumb1 -26.253704 0.000000 33.147579
RightShoulder -14.243226 20.337596 -29.496499
RightArm 23.571907 -21.714388 89.989809
RightForeArm -7.091201 -0.000000 134.036184
RightHand -3.213903 -0.000000 -20.745442
RightHandThumb1 -24.326973 -0.000000 -32.862282
LeftUpLeg -13.450130 8.701446 -1.848913
LeftLeg 0.225551 -0.000000 -0.000000
LeftFoot -12.831470 17.854868 -17.312226
LeftToeBase 5.740577 -0.000000 -0.000000
RightUpLeg -15.994764 -4.207056 -1.643047
RightLeg 8.256192 -0.000000 -0.000000
RightFoot -9.364653 -4.084365 -5.702921
RightToeBase -1.118396 -0.000000 0.000000
2603
root 0.057800 32.776862 -2.059912 14.515470 1.240748 -1.240245
Spine -8.142227 6.235828 -5.135006
Head -12.931725 -23.031376 15.470106
LeftShoulder -4.767046 24.600367 13.985300
LeftArm 43.390475 39.219089 -52.939569
LeftForeArm 33.090869 -0.000000 104.591195
LeftHand -27.273055 0.000000 22.234332
LeftHandThumb1 -26.253704 0.000000 33.147579
RightShoulder -14.257662 20.322488 -29.453091
RightArm 23.480163 -21.833637 89.951463
RightForeArm -7.454197 -0.000000 134.144329
RightHand -3.109431 0.000000 -20.239735
RightHandThumb1 -24.326973 -0.000000 -32.862282
LeftUpLeg -13.395106 8.608089 -1.797361
LeftLeg 0.234886 -0.000000 -0.000000
LeftFoot -12.837272 17.849464 -17.304178
LeftToeBase 5.736526 -0.000000 -0.000000
RightUpLeg -15.894391 -4.282690 -1.609227
RightLeg 8.201454 -0.000000 -0.000000
RightFoot -9.387165 -4.019481 -5.547148
RightToeBase -0.956795 -0.000000 0.000000
2604
root 0.055467 32.775770 -2.052445 14.466462 1.348382 -1.223719
Spine -8.147859 6.231777 -5.116692
Head -12.826893 -22.833604 15.429930
LeftShoulder -4.756136 24.558165 13.974590
LeftArm 43.596116 39.266558 -52.844177
LeftForeArm 33.189518 -0.000000 104.615739
LeftHand -27.451572 -0.000000 22.252061
LeftHandThumb1 -26.253704 0.000000 33.147579
RightShoulder -14.291530 20.396193 -29.457279
RightArm 23.313264 -21.981891 89.942425
RightForeArm -7.608864 -0.000000 134.244669
RightHand -3.076323 -0.000000 -20.763603
RightHandThumb1 -24.326973 -0.000000 -32.862282
LeftUpLeg -13.342522 8.477272 -1.770870
LeftLeg 0.237132 -0.000000 -0.000000
LeftFoot -12.830000 17.897436 -17.273654
LeftToeBase 5.704370 -0.000000 -0.000000
RightUpLeg -15.815833 -4.332872 -1.615127
RightLeg 8.218557 -0.000000 -0.000000
RightFoot -9.412560 -4.133548 -5.636638
RightToeBase -1.123860 -0.000000 0.000000
